<svg width="800" height="800" viewBox="0 0 800 800" fill="none" xmlns="http://www.w3.org/2000/svg">
<path fill-rule="evenodd" clip-rule="evenodd" d="M375.333 228.667L262.333 162C259.398 160.36 256.824 158.145 254.765 155.486C252.705 152.828 251.204 149.782 250.349 146.53C249.495 143.278 249.305 139.887 249.791 136.56C250.277 133.233 251.43 130.038 253.18 127.167C254.929 124.296 257.24 121.807 259.974 119.849C262.708 117.892 265.809 116.506 269.091 115.775C272.373 115.043 275.768 114.982 279.075 115.593C282.381 116.205 285.53 117.477 288.333 119.334L400.333 186L375.333 228.667Z" fill="#AECBFA"/>
<path fill-rule="evenodd" clip-rule="evenodd" d="M384 343.667L156.333 212C153.488 210.358 150.994 208.173 148.993 205.567C146.993 202.962 145.525 199.988 144.674 196.815C142.955 190.408 143.852 183.58 147.167 177.833C150.482 172.087 155.944 167.893 162.352 166.174C168.759 164.455 175.587 165.351 181.333 168.667L384 286V343.667Z" fill="#AECBFA"/>
<path fill-rule="evenodd" clip-rule="evenodd" d="M653.333 177.667C649.945 172.23 644.622 168.279 638.437 166.609C632.252 164.939 625.664 165.674 620 168.667L425 280V228.334L538 161.667C543.45 158.285 547.369 152.913 548.925 146.69C550.481 140.467 549.551 133.883 546.333 128.334C542.895 122.948 537.524 119.083 531.325 117.533C525.126 115.983 518.569 116.866 513 120L388.333 192.667C384.381 194.987 381.104 198.299 378.824 202.274C376.544 206.249 375.341 210.751 375.333 215.334V700C374.927 703.503 375.266 707.052 376.328 710.414C377.391 713.777 379.152 716.876 381.498 719.51C383.843 722.143 386.719 724.25 389.936 725.693C393.154 727.136 396.64 727.882 400.167 727.882C403.693 727.882 407.179 727.136 410.397 725.693C413.614 724.25 416.49 722.143 418.835 719.51C421.181 716.876 422.942 713.777 424.005 710.414C425.067 707.052 425.406 703.503 425 700V338L644 212C649.755 208.652 653.962 203.173 655.708 196.748C657.455 190.323 656.602 183.468 653.333 177.667Z" fill="#669DF6"/>
<path d="M400.333 131C415.797 131 428.333 118.464 428.333 103C428.333 87.536 415.797 75 400.333 75C384.869 75 372.333 87.536 372.333 103C372.333 118.464 384.869 131 400.333 131Z" fill="#669DF6"/>
<path d="M316 360.666C319.831 362.759 323.028 365.844 325.256 369.597C327.485 373.351 328.663 377.635 328.667 382V518C328.687 522.414 327.523 526.753 325.295 530.564C323.067 534.376 319.857 537.519 316 539.666C312.225 541.773 307.989 542.918 303.667 543C299.244 542.881 294.908 541.74 291 539.666L147 456.666C141.254 453.351 137.06 447.889 135.341 441.482C133.621 435.074 134.518 428.246 137.833 422.5C141.149 416.753 146.611 412.559 153.018 410.84C159.426 409.121 166.254 410.018 172 413.333L278.667 474.666V396.666L230.333 369C224.834 365.667 220.831 360.344 219.155 354.136C217.479 347.929 218.259 341.314 221.333 335.666C224.607 330.103 229.931 326.045 236.163 324.362C242.395 322.679 249.038 323.507 254.667 326.666L316 360.666Z" fill="#AECBFA"/>
<path d="M175.333 336.667C190.797 336.667 203.333 324.13 203.333 308.667C203.333 293.203 190.797 280.667 175.333 280.667C159.869 280.667 147.333 293.203 147.333 308.667C147.333 324.13 159.869 336.667 175.333 336.667Z" fill="#AECBFA"/>
<path d="M544.667 325.666C550.295 322.507 556.939 321.679 563.17 323.362C569.402 325.045 574.726 329.103 578 334.666C581.074 340.314 581.855 346.929 580.178 353.136C578.502 359.344 574.499 364.667 569 368L520.667 395.666V473.666L627.333 412.333C630.179 410.692 633.319 409.627 636.576 409.199C639.833 408.771 643.142 408.989 646.315 409.84C649.488 410.692 652.462 412.159 655.067 414.16C657.673 416.16 659.858 418.654 661.5 421.5C663.141 424.345 664.207 427.486 664.634 430.743C665.062 434 664.844 437.309 663.993 440.482C663.142 443.654 661.674 446.628 659.673 449.234C657.673 451.839 655.179 454.025 652.333 455.666L508.333 538.666C504.425 540.74 500.09 541.881 495.667 542C491.344 541.918 487.108 540.773 483.333 538.666C479.476 536.519 476.266 533.376 474.038 529.565C471.81 525.753 470.646 521.414 470.667 517V382C470.67 377.635 471.848 373.351 474.077 369.598C476.305 365.844 479.503 362.759 483.333 360.666L544.667 325.666Z" fill="#4285F4"/>
<path d="M624.667 336.667C640.131 336.667 652.667 324.13 652.667 308.667C652.667 293.203 640.131 280.667 624.667 280.667C609.203 280.667 596.667 293.203 596.667 308.667C596.667 324.13 609.203 336.667 624.667 336.667Z" fill="#4285F4"/>
</svg>
