<svg width="800" height="800" viewBox="0 0 800 800" fill="none" xmlns="http://www.w3.org/2000/svg">
<path d="M427.5 400C427.5 335.55 478.45 283.35 541.25 283.35C604.1 283.35 655 335.5 655 400C655 464.45 604.1 516.65 541.25 516.65C478.5 516.65 427.5 464.5 427.5 400Z" fill="#1ABCFE"/>
<path d="M200 633.35C200 568.9 250.95 516.65 313.75 516.65H427.5V633.35C427.5 697.75 376.55 750 313.75 750C250.95 750 200 697.75 200 633.35Z" fill="#0ACF83"/>
<path d="M427.5 50V283.35H541.25C604.1 283.35 655 231.1 655 166.65C655 102.25 604.1 50 541.25 50H427.5Z" fill="#FF7262"/>
<path d="M200 166.65C200 231.1 250.95 283.35 313.75 283.35H427.5V50H313.75C250.95 50 200 102.25 200 166.65Z" fill="#F24E1E"/>
<path d="M200 400C200 464.45 250.95 516.65 313.75 516.65H427.5V283.35H313.75C250.95 283.35 200 335.5 200 400Z" fill="#A259FF"/>
</svg>
