<svg width="800" height="800" viewBox="0 0 800 800" fill="none" xmlns="http://www.w3.org/2000/svg">
<path d="M145 615L149.25 609.075L349.75 228.725L350.175 224.7L261.8 58.7C260.182 55.6644 257.651 53.2144 254.564 51.6966C251.477 50.1788 247.991 49.67 244.599 50.2422C241.207 50.8144 238.081 52.4387 235.663 54.8852C233.245 57.3317 231.657 60.4766 231.125 63.875L145 615Z" fill="#FFC24A"/>
<path d="M147.5 610.5L150.7 604.25L349.125 227.85L260.975 61.2002C259.521 58.302 257.168 55.9529 254.267 54.5047C251.366 53.0565 248.074 52.5873 244.884 53.1673C241.694 53.7473 238.778 55.3453 236.572 57.7219C234.367 60.0985 232.99 63.1258 232.65 66.3502L147.5 610.5Z" fill="#FFA712"/>
<path d="M414.6 350.25L480.4 282.75L414.575 157.225C413.126 154.523 410.972 152.265 408.342 150.691C405.711 149.117 402.703 148.286 399.638 148.286C396.572 148.286 393.564 149.117 390.934 150.691C388.303 152.265 386.149 154.523 384.7 157.225L349.525 224.275V230L414.6 350.25Z" fill="#F4BD62"/>
<path d="M413.425 347.5L477.4 282L413.425 160C412.378 157.359 410.589 155.078 408.275 153.431C405.96 151.783 403.219 150.841 400.381 150.717C397.543 150.593 394.729 151.292 392.28 152.731C389.83 154.169 387.849 156.286 386.575 158.825L351.225 227.05L350.175 230.525L413.425 347.5Z" fill="#FFA50E"/>
<path d="M145.05 615.025L146.975 613.075L153.95 610.25L410.45 354.7L413.7 345.85L349.725 223.9L145.05 615.025Z" fill="#F6820C"/>
<path d="M422.8 743.9L655 614.425L588.65 206.15C588.174 203.272 586.915 200.581 585.01 198.371C583.105 196.162 580.628 194.52 577.851 193.627C575.074 192.733 572.105 192.622 569.269 193.305C566.433 193.988 563.84 195.44 561.775 197.5L145 615L375.825 743.875C383.001 747.879 391.082 749.982 399.3 749.982C407.518 749.982 415.599 747.879 422.775 743.875" fill="#FDE068"/>
<path d="M652.875 613.35L587.075 208.15C586.959 205.397 586.029 202.74 584.402 200.517C582.775 198.293 580.526 196.601 577.937 195.656C575.349 194.711 572.539 194.556 569.862 195.209C567.185 195.862 564.762 197.294 562.9 199.325L147.5 614.225L375.775 741.725C382.894 745.696 390.911 747.781 399.062 747.781C407.214 747.781 415.231 745.696 422.35 741.725L652.875 613.35Z" fill="#FCCA3F"/>
<path d="M422.8 740C415.624 744.004 407.543 746.106 399.325 746.106C391.107 746.106 383.026 744.004 375.85 740L146.9 613.05L145 615L375.825 743.875C383.001 747.879 391.082 749.981 399.3 749.981C407.518 749.981 415.599 747.879 422.775 743.875L655 614.425L654.425 610.925L422.8 740Z" fill="#EEAB37"/>
</svg>
