<svg width="800" height="800" viewBox="0 0 800 800" fill="none" xmlns="http://www.w3.org/2000/svg">
<path d="M165.304 352.229C142.527 362.941 82.2415 411.161 70.6303 425.448C58.5719 439.735 55.0004 417.413 67.5039 380.356C77.326 350.442 102.337 309.813 144.313 274.99C168.874 254.898 222.91 225.879 255.955 208.912C262.655 205.339 349.29 168.729 426.547 150.424C433.246 148.638 418.509 161.586 416.275 168.729C404.664 202.66 172.893 348.209 172.893 348.209L165.304 352.229ZM491.746 761.638C495.764 785.748 492.193 787.534 467.186 790.66C442.177 793.786 423.867 784.408 417.17 778.159C410.469 771.905 409.132 758.068 415.83 745.567C419.851 737.529 423.87 734.851 426.103 725.029C428.336 715.654 430.122 713.42 431.907 709.85C433.692 706.722 434.141 703.596 434.587 681.72C435.034 659.845 434.587 618.768 436.82 601.358C439.054 583.5 516.312 609.393 516.312 609.393C516.312 609.393 498.001 654.933 493.089 666.094C488.176 677.258 488.623 698.686 488.623 703.151C488.623 707.616 486.839 716.544 485.497 716.991C484.157 717.436 489.963 729.044 487.281 735.743C485.495 741.995 491.3 758.068 491.746 761.638ZM521.221 78.989C518.539 62.0234 521.221 28.5351 524.792 23.1802C535.958 7.99887 594.904 6.21463 607.41 24.0724C612.768 32.1079 612.32 50.8599 611.428 62.9156C610.536 74.969 607.41 100.865 606.962 109.35C606.518 115.601 541.763 125.421 527.473 108.455C523.452 103.992 521.221 78.989 521.221 78.989ZM652.513 718.33C679.753 737.976 700.742 741.548 714.585 748.691C728.428 755.836 724.856 769.676 701.634 773.694C682.878 777.265 653.405 770.121 633.756 770.121C614.108 770.121 570.342 772.355 558.731 764.32C545.335 754.944 551.138 737.529 551.138 737.529C554.712 727.709 563.642 705.83 560.963 687.972C558.284 670.115 554.71 660.292 548.012 643.771C541.315 627.253 536.403 586.625 542.656 584.392C548.909 582.159 547.12 584.392 555.16 586.177C563.197 587.961 572.129 590.641 589.546 590.641C606.962 590.641 626.164 587.961 632.864 586.624C639.562 585.284 644.92 583.942 642.686 597.785C640.454 611.625 633.756 637.52 633.309 657.611C632.864 677.703 632.864 700.919 634.203 704.937C635.541 708.956 645.367 713.42 652.513 718.33Z" fill="#010101"/>
<path d="M556.946 123.637C507.824 166.053 412.703 177.659 271.589 232.129C235.416 245.969 138.957 287.49 115.735 330.799C193.884 285.706 222.912 347.764 229.163 411.608C234.966 471.436 264.889 502.69 341.699 500.902C420.742 499.117 444.857 545.102 466.738 599.127C509.162 392.409 577.042 352.229 620.803 316.959C713.692 241.503 599.369 108.456 556.946 123.637Z" fill="#8AC640"/>
<path d="M556.946 123.637C439.052 164.711 322.495 174.98 185.4 259.363C152.8 279.455 84.0279 324.992 70.6299 412.055C120.644 356.691 236.306 287.045 377.87 242.844C449.322 220.52 501.571 205.788 564.983 181.232C560.52 152.655 560.52 141.494 556.946 123.637Z" fill="#8AC640"/>
<path d="M707.439 368.3C707.439 368.3 698.954 397.321 681.985 406.698C681.985 406.698 669.481 411.164 644.475 397.324C637.329 393.306 631.971 379.466 632.416 374.999C632.863 364.282 639.561 359.372 639.561 359.372C639.561 359.372 646.708 347.317 655.191 347.764C663.678 348.209 677.969 349.548 682.435 345.531C686.451 341.066 708.333 353.566 707.439 368.3ZM525.238 87.4717C525.238 87.4717 523.454 110.244 520.327 124.529C519.88 127.209 506.485 128.546 496.658 132.567C515.414 186.142 628.397 185.695 643.135 159.354C635.99 154.444 621.699 146.854 615.002 144.175C608.301 141.495 608.748 141.942 608.301 129.441C607.856 116.938 606.962 93.7232 606.067 87.4717C605.175 81.2204 535.955 81.2204 525.238 87.4717Z" fill="#010101"/>
<path d="M529.705 87.4717C529.705 87.4717 529.705 100.42 528.365 112.921C527.92 118.724 527.473 122.295 526.581 126.761C526.134 129.441 541.763 140.153 546.229 163.817C567.665 211.588 617.236 187.926 637.777 165.156C630.632 160.244 619.021 153.548 605.625 148.191C598.925 145.51 602.051 139.708 601.606 127.208C601.158 114.707 599.372 96.3994 598.48 89.7034C597.583 83.0069 540.424 81.2205 529.705 87.4717Z" fill="#F0EFEF"/>
<path d="M525.239 87.4719C525.239 87.4719 524.792 95.5091 523.454 104.885C529.258 110.687 536.85 118.725 542.657 123.637C546.676 127.21 556.499 126.762 565.433 126.762C573.47 126.762 580.615 127.654 583.742 125.87C590.889 122.297 601.158 113.37 606.964 106.671C606.519 98.6348 606.072 91.0448 605.627 87.4719C605.175 81.2203 535.955 81.2203 525.239 87.4719Z" fill="#010101"/>
<path d="M565.878 121.402C560.517 121.402 554.265 120.958 549.353 120.063C547.119 119.618 544.887 118.279 543.101 117.385C539.974 115.152 536.848 112.475 533.278 109.794C526.131 104.437 525.686 101.312 525.686 99.974C528.812 71.8451 524.792 48.1832 524.792 48.1832C524.792 48.1832 521.665 36.1275 538.635 33.0018C555.604 29.8761 565.876 29.4312 565.876 29.4312C565.876 29.4312 576.595 29.4312 593.117 33.0018C610.086 36.1275 606.96 48.1832 606.96 48.1832C606.96 48.1832 602.941 71.8451 606.067 99.974C606.067 101.312 605.623 104.437 598.475 109.794C592.222 114.259 587.312 119.169 582.4 120.063C577.487 120.958 571.234 121.402 565.878 121.402Z" fill="#010101"/>
<path d="M565.878 17.8228C536.405 17.8228 530.597 25.8584 522.112 34.7884C520.327 37.0197 521.665 50.4147 524.793 78.9887H528.812C528.812 78.9887 526.131 70.9509 526.578 61.576C527.026 52.2011 528.812 52.6482 527.47 50.4147C525.686 47.734 522.112 43.269 530.152 38.8061C538.19 34.3412 550.693 42.3768 565.878 42.824C581.061 42.3768 594.011 34.3412 602.049 38.8061C610.086 43.269 606.515 47.734 604.73 50.4147C602.943 53.0932 605.175 52.1989 605.623 61.576C606.067 70.9509 603.388 78.9887 603.388 78.9887H607.407C610.086 50.4147 611.873 37.9141 610.533 35.6804C602.941 25.8584 595.35 18.2677 565.878 17.8228ZM707.439 369.64C707.439 369.64 698.954 396.874 682.432 406.249C678.858 404.465 679.305 401.786 676.18 397.766C675.285 396.429 672.158 395.532 670.821 394.195C669.482 392.856 669.929 390.622 667.695 388.839C665.908 387.052 664.568 388.391 662.782 387.052C660.997 385.268 660.547 383.034 659.21 381.697C658.316 380.802 654.744 380.358 653.851 379.463C651.618 377.23 631.971 373.212 632.863 368.747C634.648 362.049 638.222 357.138 638.222 357.138C638.222 357.138 646.707 344.638 655.189 345.083C663.674 345.53 671.714 347.316 676.18 343.299C681.093 338.831 708.781 355.352 707.439 369.64Z" fill="#010101"/>
<path d="M649.385 172.302C649.385 172.302 677.519 165.604 696.723 183.91C715.926 202.662 714.584 225.877 708.781 240.164C713.692 245.969 722.624 262.039 715.926 281.238C745.399 306.24 732.448 344.638 706.102 370.087C706.102 370.087 699.849 346.87 674.842 345.53C675.734 336.602 651.62 329.457 662.783 306.24C645.814 302.222 646.261 290.613 643.583 276.329C641.348 262.039 649.385 172.302 649.385 172.302Z" fill="#010101"/>
<path d="M639.114 184.803C639.114 184.803 671.714 168.284 690.917 187.036C710.118 205.788 704.758 226.324 698.954 240.611C703.866 246.413 715.476 262.936 708.332 282.578C706.992 287.043 697.168 287.043 690.021 298.651C707.882 288.38 719.048 291.06 723.067 304.006C729.32 324.098 715.475 348.206 703.419 361.602C703.419 361.155 702.971 360.707 702.971 360.262C701.186 366.961 698.953 379.906 685.556 394.194C678.857 401.337 673.499 400.444 665.906 398.658C656.976 396.425 653.85 392.405 641.346 385.71C634.201 381.692 638.22 376.781 638.22 372.763C638.22 371.871 639.112 370.529 640.453 368.745C641.346 366.511 644.025 362.943 648.044 358.923C648.044 358.923 653.85 350.888 662.336 351.332C670.821 351.779 679.751 349.995 681.985 347.762C681.985 332.136 664.123 331.688 670.374 304.9C670.821 303.562 673.055 301.327 680.198 300.436C669.479 298.202 664.568 297.754 656.976 290.613C651.618 285.704 647.599 279.452 646.257 271.417C643.58 257.577 639.114 184.803 639.114 184.803Z" fill="#F0EFEF"/>
<path d="M544.887 156.676C542.209 153.103 528.365 135.245 502.016 128.102C494.424 125.867 489.513 132.119 481.923 136.584C479.689 135.245 469.864 130.78 464.506 133.904C459.148 137.027 455.577 140.154 450.216 142.386C447.534 141.047 440.391 141.047 434.586 143.278C428.78 145.065 419.848 149.082 411.363 160.691C406.005 179.89 506.035 165.601 506.035 165.601L544.887 156.676Z" fill="#010101"/>
<path d="M545.782 156.676C531.489 151.764 533.724 135.245 502.016 132.566C495.764 132.119 491.745 137.029 487.279 140.154C489.513 142.389 491.745 145.959 493.084 149.529C489.066 145.067 481.92 139.26 474.773 137.921C468.075 136.584 463.609 141.494 456.465 145.067C457.801 146.404 459.143 148.638 460.928 151.318C454.676 147.3 450.211 145.962 441.726 149.085C435.921 150.869 424.757 155.781 416.272 167.837C410.914 187.036 506.481 165.603 506.481 165.603L545.782 156.676Z" fill="#8AC640"/>
<path d="M629.737 163.82C629.737 163.82 629.737 158.907 629.29 154.445C629.29 153.553 625.719 151.319 625.719 150.427L624.826 149.533C624.826 149.533 631.971 145.515 637.329 147.748C643.133 149.533 646.26 157.123 646.26 157.123C656.531 153.553 657.423 157.57 662.336 162.927C673.055 160.694 674.392 164.711 681.093 174.536C681.093 174.536 673.055 173.196 657.425 175.873C642.241 178.104 629.737 163.373 629.737 163.82Z" fill="#010101"/>
<path d="M627.95 161.585C627.95 161.585 630.629 159.352 629.735 158.905C634.646 156.226 641.346 153.103 644.472 161.585C654.744 158.013 656.084 162.925 660.994 168.284C673.498 162.479 674.391 169.621 675.285 172.747C671.266 172.747 665.463 173.194 657.423 174.086C642.24 176.319 627.503 161.138 627.95 161.585Z" fill="#8AC640"/>
<path d="M476.118 150.424C476.118 150.424 501.572 159.352 523.007 158.013C544.442 156.228 581.061 154.442 600.709 166.051C600.709 166.051 620.805 158.905 639.561 163.817C658.32 168.727 692.704 200.873 682.435 234.805C681.54 237.038 675.734 240.609 669.037 242.843C669.037 242.843 672.61 258.022 666.357 270.523C660.105 282.578 646.261 305.795 645.814 337.939C645.369 343.297 644.477 354.458 643.583 359.815C608.748 358.478 555.161 345.529 502.466 346.423C502.911 340.621 503.358 337.048 503.805 331.243H505.143C502.464 316.509 501.572 308.918 498.89 297.757C481.92 287.043 464.056 274.543 448.876 250.878C434.139 227.214 476.118 150.424 476.118 150.424ZM648.493 391.517C648.493 391.517 676.181 490.634 643.583 532.156C643.583 532.156 648.493 551.353 637.329 571.891C635.543 580.819 633.309 588.857 631.971 597.785C626.165 634.841 616.339 650.467 613.66 709.847L586.864 709.403C586.864 709.403 583.737 666.542 574.361 643.771C569.004 630.826 548.011 613.411 548.908 596C549.8 582.606 552.48 571.444 575.257 553.585C577.042 527.691 551.141 503.133 555.161 406.696L648.493 391.517Z" fill="#010101"/>
<path d="M640.456 387.497C647.601 433.037 664.124 500.454 634.203 533.491C635.968 541.869 636.119 550.505 634.648 558.94C633.756 564.296 631.969 570.101 629.737 576.35C625.271 587.066 623.484 602.693 622.145 612.067C616.339 649.124 616.339 650.913 613.66 710.292L586.864 709.845C586.864 709.845 583.738 666.984 574.361 644.217C569.004 631.268 557.838 620.107 556.946 602.694C556.054 589.302 565.43 562.514 587.76 563.406C586.421 509.384 561.412 520.099 554.714 407.589L640.456 387.497ZM476.118 150.424C476.118 150.424 485.941 153.55 496.658 154.442C507.377 155.334 518.988 154.442 529.258 153.995C550.693 152.211 581.061 149.977 601.157 161.585C601.157 161.585 612.32 158.013 624.379 158.905C629.737 159.352 635.098 163.817 641.348 165.604C660.997 170.513 679.753 203.105 671.267 232.573C670.374 234.807 664.121 232.573 656.976 234.807C658.313 241.058 659.21 255.345 652.062 270.524C644.472 285.705 634.648 305.35 636.433 342.854C589.543 340.621 568.555 337.497 522.11 335.263C518.091 318.743 515.41 302.224 514.965 293.742C521.218 290.616 524.787 287.94 529.703 282.581C516.307 284.814 510.947 283.919 502.907 279.455C494.869 274.99 480.578 260.703 473.434 251.328C472.541 250.433 467.63 265.165 456.466 265.615C452.446 259.81 469.415 243.29 466.289 237.041C455.127 214.268 476.118 150.424 476.118 150.424Z" fill="#F0EFEF"/>
<path d="M644.025 350.439C644.025 350.439 644.918 366.514 644.918 370.531C644.918 374.996 648.491 388.389 648.937 394.641C644.025 403.123 622.59 422.322 583.738 429.466C545.333 437.501 494.424 377.23 494.424 377.23C495.764 371.425 500.23 354.458 503.356 345.53C503.803 344.638 504.696 342.404 504.696 341.512C508.716 335.708 644.025 350.439 644.025 350.439Z" fill="#010101"/>
<path d="M634.203 351.782C634.203 362.944 635.987 370.981 637.329 378.125C639.561 391.072 643.133 399.555 643.133 408.038C643.133 433.931 609.194 429.466 580.611 430.36C542.206 438.398 509.606 378.125 509.606 378.125C512.286 367.856 514.072 356.249 518.091 346.425C518.536 341.067 519.431 334.371 519.876 331.246C574.358 331.246 612.763 334.371 635.093 336.601C635.987 341.513 635.095 349.995 634.203 351.782Z" fill="#F0EFEF"/>
<path d="M591.33 409.375C591.33 409.375 567.663 356.691 496.656 372.32C479.689 420.091 456.912 475.008 471.649 534.387C456.912 554.479 439.942 565.642 439.942 602.697C439.942 639.754 441.729 646.005 441.729 646.005L493.977 648.686C493.977 648.686 510.947 626.81 517.644 603.146C519.431 596.448 521.218 584.394 519.879 570.554C521.663 567.876 529.255 561.627 530.15 549.571C530.15 549.571 555.604 536.178 570.342 503.587C584.187 474.113 580.613 448.665 591.33 409.375Z" fill="#010101"/>
<path d="M591.33 409.375C589.993 404.465 572.129 356.247 506.035 370.531C467.186 474.113 481.476 516.974 487.279 535.724C460.931 569.208 448.874 576.352 454.234 644.216H489.068C505.143 618.767 508.716 609.391 509.609 575.907C509.609 574.567 504.697 578.585 501.124 583.05C503.805 569.211 511.396 566.532 517.201 558.049C519.88 554.476 522.113 549.119 522.113 541.975C553.372 520.992 564.983 494.649 571.681 467.415C577.042 448.665 583.293 417.857 591.33 409.375Z" fill="#F0EFEF"/>
<path d="M481.028 337.495C481.028 337.495 493.087 337.94 503.805 341.513C514.078 345.083 514.078 347.315 518.096 351.782C522.115 356.249 531.939 362.944 530.154 369.64C529.259 373.212 527.028 374.105 523.901 377.231C522.562 378.57 512.736 389.284 510.504 390.623C509.164 391.515 507.377 392.857 506.038 393.748L499.339 398.214C494.873 400.447 491.747 401.786 486.836 401.339C486.836 401.339 475.672 400.892 468.525 393.304C468.525 393.304 467.633 389.731 469.419 387.946C469.419 387.946 460.04 379.908 457.361 374.552C454.68 369.197 454.68 361.606 456.469 357.589C457.361 353.566 474.776 342.405 481.028 337.495ZM492.195 771.908L490.855 783.071C490.855 783.071 486.836 787.981 456.916 787.536C426.549 787.089 418.511 777.714 415.832 772.802L414.047 761.193C414.047 761.193 419.853 752.711 421.192 752.711C431.017 753.602 464.51 766.998 487.733 770.568C489.96 770.568 490.406 771.461 492.195 771.908ZM556.946 749.138C556.946 754.048 556.499 754.048 556.499 758.96C561.857 762.978 575.257 765.212 600.709 764.762C637.775 763.87 672.161 775.926 714.137 768.78L714.584 760.744L710.566 760.299L561.857 748.243L556.946 749.138Z" fill="#010101"/>
<path d="M589.545 764.764H600.71C624.826 763.872 647.601 769.229 672.161 770.568C685.112 770.121 701.189 766.995 699.849 757.62L573.023 746.904C565.431 755.387 571.234 762.53 589.545 764.764ZM443.963 576.802C447.981 579.48 475.223 595.554 519.433 593.32C518.539 601.803 518.986 618.323 499.338 647.342C489.513 661.629 481.026 686.633 479.242 718.332C479.689 725.475 483.708 731.725 478.349 741.102C480.134 746.904 487.279 758.513 490.853 765.656C494.425 772.801 496.211 780.838 472.541 781.285C448.427 781.729 409.574 779.051 414.935 760.301C417.617 750.479 425.207 740.21 426.101 736.19C426.993 732.172 426.993 720.119 434.584 712.081C441.284 689.759 439.05 668.328 437.713 648.236C435.478 627.251 435.031 593.767 443.963 576.802ZM485.494 212.929C517.202 170.513 490.406 136.584 439.499 146.851C418.956 150.869 398.415 165.158 397.073 191.051C390.375 191.944 375.193 192.836 367.601 220.518C361.797 241.948 358.67 245.967 348.396 256.681C341.699 264.271 348.844 279.897 353.755 291.061C370.28 329.457 421.188 333.028 455.574 362.049C467.186 358.923 479.242 345.978 482.815 337.494C453.788 303.114 460.038 289.721 448.427 271.863C460.932 267.397 489.513 249.986 485.494 212.929Z" fill="#010101"/>
<path d="M479.242 210.251C481.026 207.57 484.152 201.768 485.494 199.535C485.941 199.087 490.852 207.57 491.299 207.125C503.356 187.479 506.482 158.905 492.637 156.226C489.51 155.779 483.708 154.442 478.794 152.653C469.864 149.527 461.827 149.527 447.534 152.209C427.885 155.779 408.237 170.066 408.237 190.604C408.237 191.944 422.078 195.962 426.099 212.482C419.399 203.105 407.788 192.836 393.945 201.765C379.207 211.14 386.8 232.571 367.151 254.893C360.451 262.484 361.345 271.415 368.488 289.272C380.099 317.401 435.028 332.581 464.949 359.368C472.094 356.242 477.005 349.098 480.578 343.742C460.483 322.758 452.443 303.112 446.64 288.825C439.494 272.306 431.455 262.931 415.825 250.427C423.865 253.552 430.118 256.678 433.686 259.357C437.705 262.035 443.511 262.483 448.872 260.695C468.078 254.004 478.349 227.214 479.242 210.251Z" fill="#F0EFEF"/>
<path d="M673.5 217.394C672.161 234.36 659.658 225.878 652.959 222.752C639.561 216.947 626.163 212.929 610.533 212.929C594.903 212.929 574.807 214.269 557.393 218.734C533.278 225.43 526.131 224.985 515.414 219.626C504.697 213.822 485.944 199.535 485.944 199.535C485.944 199.535 485.497 204 489.963 209.803C495.765 216.947 508.719 225.878 526.133 231.68C534.618 234.36 541.318 232.571 548.911 230.787C588.655 220.966 630.631 219.179 665.91 240.609C667.697 241.501 673.95 238.823 676.628 234.805C680.198 229.003 673.5 217.394 673.5 217.394Z" fill="#010101"/>
<path d="M470.311 387.498C473.883 389.731 478.349 391.07 483.26 395.088C483.26 395.088 479.242 395.088 477.457 393.304C475.223 391.964 470.757 387.946 470.311 387.498Z" fill="#0A1825"/>
<path d="M599.369 33.4492C598.03 29.4314 588.204 22.2856 565.43 22.2856C540.868 22.2856 533.724 29.8763 533.278 33.8942C533.278 35.2334 531.492 49.5227 531.044 55.3247C531.044 55.3247 531.044 62.4682 531.489 73.1824C531.936 80.3259 533.724 84.3437 534.616 93.7206C535.508 103.541 538.19 109.792 543.101 117.83C545.334 119.167 547.119 120.508 549.353 120.955C558.285 122.74 573.915 123.187 582.4 120.955C587.311 119.617 593.564 111.133 594.903 103.542C596.688 94.1677 598.475 87.4691 598.922 81.6674C599.815 75.8653 600.262 62.9154 600.707 59.3425C602.049 49.5227 599.815 34.3413 599.369 33.4492Z" fill="#F0EFEF"/>
<path d="M552.48 585.284C552.48 585.284 576.15 595.554 634.651 586.624C634.651 586.624 618.129 669.667 625.72 711.187C625.72 711.187 633.31 721.903 689.58 742.44C689.58 742.44 714.587 748.69 713.694 761.194C713.694 761.194 714.587 763.872 684.221 762.978C653.856 762.083 625.273 756.727 605.177 756.727C585.082 756.727 563.646 757.619 560.075 751.816C556.056 746.46 560.967 732.617 566.772 724.58C573.027 716.099 571.238 709.845 570.793 694.668C569.449 654.933 539.082 613.858 552.48 585.284Z" fill="#010101"/>
<path d="M547.566 592.875C544.44 597.34 548.012 614.303 552.478 630.824C556.944 647.342 566.77 657.167 569.002 684.399C571.234 711.187 571.681 714.76 564.089 730.383C556.496 746.008 554.265 760.297 580.611 760.744C606.958 761.191 621.25 760.297 648.043 764.317C674.84 768.335 684.217 769.674 698.954 767.442C713.692 765.212 716.817 760.297 710.566 755.834C704.313 751.369 678.412 746.459 667.248 737.527C656.528 729.491 626.163 716.097 625.719 712.525C624.378 700.47 623.931 656.717 626.163 642.43C628.397 628.141 631.521 607.605 632.416 602.247C633.31 596.89 637.775 591.531 630.182 593.318C622.592 595.102 594.011 599.122 572.576 597.783C551.14 596.445 548.908 591.533 547.566 592.875Z" fill="#8AC640"/>
<path opacity="0.3" d="M562.752 730.833C570.342 734.405 581.508 737.085 589.993 737.085C589.993 737.085 586.864 751.819 591.777 760.747C596.688 769.677 556.051 764.32 556.051 764.32L554.267 732.62L562.752 730.833ZM681.093 769.23C688.238 766.996 693.152 758.96 687.345 751.372C681.093 743.781 675.734 742.442 683.772 741.997C691.811 741.55 721.284 759.407 721.284 759.407L706.1 773.247L681.093 769.23ZM546.227 610.286C556.498 613.859 572.129 614.751 585.527 614.303C598.922 613.859 619.018 612.07 631.971 607.608C644.919 603.142 639.561 612.517 639.561 612.517L632.416 619.216C632.416 619.216 615.447 625.913 587.76 625.467C555.161 625.02 545.334 621.449 545.334 621.449L546.227 610.286ZM547.119 632.611C557.393 636.184 573.021 637.075 586.419 636.628C599.815 636.184 617.679 636.184 630.629 631.272C635.987 629.487 632.863 637.075 632.863 637.075L630.629 641.094C630.629 641.094 613.213 647.345 585.971 646.896C553.372 646.451 547.567 643.77 547.567 643.77L547.119 632.611Z" fill="#010101"/>
<path d="M517.646 319.638C517.646 322.763 552.48 340.174 571.681 343.746C590.884 347.318 631.077 343.746 637.328 342.407L636.433 348.659C636.433 348.659 588.651 355.803 552.032 345.98C515.413 336.158 519.433 333.925 519.433 333.925L517.646 319.638Z" fill="#010101"/>
<path d="M443.068 700.472C448.427 703.153 467.63 708.063 480.134 705.384C481.919 704.937 480.134 674.577 485.047 660.737C492.192 641.538 503.803 625.912 509.159 591.983C490.403 590.196 468.97 585.284 457.804 581.711C443.516 625.466 448.429 662.968 443.068 700.472ZM472.991 728.602C476.118 729.493 478.349 733.064 479.243 730.835C481.028 726.815 476.118 719.227 475.67 713.869V713.422C471.652 709.851 444.41 709.404 446.197 711.189C443.071 716.993 438.159 716.101 436.375 727.709C435.482 733.511 442.628 728.602 449.323 728.155C437.267 736.19 423.425 746.461 421.19 755.389C418.511 767.89 422.977 771.462 436.375 778.161C447.986 780.84 461.829 781.287 472.546 780.84C484.604 778.606 486.839 772.804 483.265 764.766C477.902 752.71 474.33 737.084 472.991 728.602Z" fill="#F0EFEF"/>
<path d="M477.902 148.638C492.64 157.121 513.183 154.889 520.773 154.442C522.56 154.442 540.424 151.316 541.316 151.762C543.101 152.209 543.101 153.548 543.101 153.548C543.101 153.548 536.402 157.118 521.22 158.011C506.93 158.903 489.96 158.011 480.584 153.548C469.417 148.638 477.902 148.638 477.902 148.638ZM629.737 157.121C632.416 158.905 649.833 165.603 657.425 173.64C664.124 180.785 660.552 180.337 659.21 178.551C657.425 176.318 643.58 166.943 638.222 164.711C632.863 162.48 626.164 158.46 626.164 157.568C626.164 156.676 629.737 157.121 629.737 157.121Z" fill="#010101"/>
<path d="M475.668 342.404C488.618 341.512 502.016 344.638 510.501 353.565C514.967 358.03 522.112 362.941 521.22 367.405C521.22 368.745 518.538 372.317 516.309 374.996C514.97 376.781 510.951 380.798 509.609 382.14C507.824 383.479 501.572 388.391 500.231 389.283C498.892 390.177 497.106 392.411 495.765 392.856C491.302 395.089 486.389 393.303 481.923 391.072C477.459 388.839 482.817 388.391 477.904 384.821C465.848 376.337 459.148 370.531 464.061 354.013C464.506 350.887 469.417 347.315 475.668 342.404Z" fill="#F0EFEF"/>
<path opacity="0.4" d="M361.794 240.164C321.603 256.237 219.337 307.137 190.311 322.763C214.425 337.942 225.589 374.552 229.163 411.608C229.608 415.181 230.055 418.307 230.503 421.878C230.947 425.004 231.395 427.235 231.84 428.577C231.84 429.024 231.84 429.916 232.288 430.36C258.636 358.48 352.861 282.58 356.434 276.776C358.219 274.098 354.2 262.489 360.453 251.33C368.492 237.038 384.125 230.788 361.794 240.164ZM457.361 577.249C477.902 536.174 478.349 496.884 477.902 450.897C477.902 431.698 491.745 404.463 484.602 412.054C457.806 441.964 390.375 498.223 341.699 501.346C410.024 499.115 436.818 533.493 457.361 577.249Z" fill="#010101"/>
<path d="M151.011 360.71C176.465 342.405 308.205 272.311 339.912 262.487C371.617 252.218 361.793 240.162 361.793 240.162C361.793 240.162 233.18 295.523 156.37 343.297" fill="#010101"/>
<path opacity="0.4" d="M526.131 231.681C515.859 227.663 507.822 239.719 510.501 251.328C513.182 262.936 537.297 275.882 535.955 318.298C535.063 353.124 527.47 367.408 527.47 367.408L510.501 345.98C510.501 345.98 507.822 297.76 502.016 290.616C496.213 283.473 477.902 270.525 470.757 263.828C463.612 257.13 478.795 248.202 477.902 235.7C477.01 223.646 485.494 199.537 485.494 199.537L526.131 231.681ZM588.206 421.875C587.313 455.36 594.906 504.919 598.03 528.583C601.157 552.245 605.175 554.031 598.03 564.748C590.885 575.017 581.508 591.983 581.508 591.983L550.693 589.302C550.693 589.302 575.255 558.05 576.592 552.245C577.932 546.443 564.089 502.243 564.089 502.243L588.206 421.875ZM528.812 109.35C535.066 123.187 542.656 129.439 554.712 133.458C561.856 136.137 589.99 139.71 601.157 127.207C606.067 121.403 602.941 105.777 602.941 105.777L577.487 126.313L543.101 120.064L539.082 109.794L528.812 109.35Z" fill="#010101"/>
<path d="M531.489 140.154C543.101 147.745 572.129 154.889 580.166 156.228C588.203 158.012 601.154 147.745 607.407 145.066C614.107 141.941 625.718 140.154 639.114 152.21C640.453 153.55 635.987 159.353 635.987 159.353C635.54 158.906 632.861 158.906 629.288 157.12C625.716 155.336 622.59 153.994 617.232 154.441C594.902 157.12 591.33 164.711 571.681 160.244C552.032 155.776 547.119 152.208 527.918 153.1" fill="#8AC640"/>
<path d="M531.489 140.154C543.101 147.745 572.129 154.889 580.166 156.228C588.203 158.012 601.154 147.745 607.407 145.066C614.107 141.941 625.718 140.154 639.114 152.21C640.453 153.55 635.987 159.353 635.987 159.353C635.54 158.906 632.861 158.906 629.288 157.12C625.716 155.336 622.59 153.994 617.232 154.441C594.902 157.12 591.33 164.711 571.681 160.244C552.032 155.776 547.119 152.208 527.918 153.1" stroke="#010101" stroke-width="5.84236" stroke-miterlimit="10" stroke-linejoin="round"/>
<path d="M527.47 141.494C542.209 147.745 570.789 154.441 578.827 156.228C586.864 158.014 599.815 149.976 606.067 145.959C617.234 138.815 631.522 144.619 638.222 152.21C642.686 157.12 644.475 160.246 644.475 161.585C644.475 163.369 639.117 161.585 639.117 161.585C635.99 160.246 632.416 159.8 629.739 158.012C626.166 156.228 622.592 153.55 617.236 153.994C594.906 156.675 590.44 164.264 571.238 159.799C552.037 155.334 547.123 151.315 526.583 152.653" fill="#8AC640"/>
<path d="M458.254 558.494C457.361 557.603 459.146 556.71 458.254 556.71C452.45 556.71 444.41 552.245 439.942 545.994C420.741 518.314 392.605 500.01 341.697 501.348C265.332 503.133 234.965 471.883 229.161 412.055C226.034 379.464 217.102 347.764 198.794 329.904L188.074 336.602C208.616 354.46 215.316 383.481 219.782 423.217C226.927 483.044 275.156 510.725 331.425 511.618C389.926 512.51 410.914 524.565 432.794 554.034C439.94 563.409 447.98 566.535 454.23 567.874L458.254 558.494Z" fill="#010101"/>
<path opacity="0.4" d="M665.463 271.417C666.802 278.113 670.374 291.061 677.519 297.31C680.647 300.436 681.093 301.327 678.414 301.327C675.733 301.327 656.084 300.436 656.084 300.436L650.726 291.061L665.463 271.417Z" fill="#010101"/>
</svg>
